<svg height="13" viewBox="0 0 13 13" width="13" xmlns="http://www.w3.org/2000/svg"><g fill="#3e3c38" fill-rule="evenodd" transform="matrix(.70710678 .70710678 -.70710678 .70710678 6.5 -4.106602)"><path d="m3.93610422 8.65384615h-2.67990075c-.69392679 0-1.25620347-.51661538-1.25620347-1.15384615s.56227668-1.15384615 1.25620347-1.15384615h2.67990075c.6939268 0 1.25620347.51661538 1.25620347 1.15384615s-.56227667 1.15384615-1.25620347 1.15384615"/><path d="m13.8199301 8.65384615h-2.8321679c-.6518706 0-1.18006989-.51661538-1.18006989-1.15384615s.52819929-1.15384615 1.18006989-1.15384615h2.8321679c.6518706 0 1.1800699.51661538 1.1800699 1.15384615s-.5281993 1.15384615-1.1800699 1.15384615"/><path d="m7.5 15c-.63738462 0-1.15384615-.5624442-1.15384615-1.2562035v-2.6799007c0-.6937593.51646153-1.25620349 1.15384615-1.25620349s1.15384615.56244419 1.15384615 1.25620349v2.6799007c0 .6937593-.51646153 1.2562035-1.15384615 1.2562035"/><path d="m7.5 5.19230769c-.63738462 0-1.15384615-.52835664-1.15384615-1.18006993v-2.83216783c0-.65171329.51646153-1.18006993 1.15384615-1.18006993s1.15384615.52835664 1.15384615 1.18006993v2.83216783c0 .65171329-.51646153 1.18006993-1.15384615 1.18006993"/></g></svg>