<svg height="46" viewBox="0 0 46 46" width="46" xmlns="http://www.w3.org/2000/svg"><g fill="#83cd44" fillRule="evenodd"><path d="m40.03355 2.199c-1.82385 0-3.3078 1.4838-3.3078 3.30765s1.48395 3.3078 3.3078 3.3078 3.30765-1.48395 3.30765-3.3078-1.4838-3.30765-3.30765-3.30765m0 8.81445c-3.03645 0-5.5068-2.47035-5.5068-5.5068 0-3.0363 2.47035-5.50665 5.5068-5.50665 3.0363 0 5.50665 2.47035 5.50665 5.50665 0 3.03645-2.47035 5.5068-5.50665 5.5068"/><path d="m40.029645 19.46245c-1.82385 0-3.3078 1.4838-3.3078 3.30765s1.48395 3.30765 3.3078 3.30765 3.30765-1.4838 3.30765-3.30765-1.4838-3.30765-3.30765-3.30765m0 8.8143c-3.03645 0-5.5068-2.4702-5.5068-5.50665 0-3.0363 2.47035-5.50665 5.5068-5.50665 3.0363 0 5.50665 2.47035 5.50665 5.50665 0 3.03645-2.47035 5.50665-5.50665 5.50665"/><path d="m40.029645 36.72575c-1.82385 0-3.3078 1.4838-3.3078 3.30765s1.48395 3.30765 3.3078 3.30765 3.30765-1.4838 3.30765-3.30765-1.4838-3.30765-3.30765-3.30765m0 8.8143c-3.03645 0-5.5068-2.47035-5.5068-5.50665 0-3.03645 2.47035-5.50665 5.5068-5.50665 3.0363 0 5.50665 2.4702 5.50665 5.50665 0 3.0363-2.47035 5.50665-5.50665 5.50665"/><path d="m22.76995 2.199c-1.82385 0-3.30765 1.4838-3.30765 3.30765s1.4838 3.3078 3.30765 3.3078 3.3078-1.48395 3.3078-3.3078-1.48395-3.30765-3.3078-3.30765m0 8.81445c-3.0363 0-5.50665-2.47035-5.50665-5.5068 0-3.0363 2.47035-5.50665 5.50665-5.50665 3.03645 0 5.5068 2.47035 5.5068 5.50665 0 3.03645-2.47035 5.5068-5.5068 5.5068"/><path d="m5.50665 2.199c-1.82385 0-3.30765 1.4838-3.30765 3.30765s1.4838 3.3078 3.30765 3.3078 3.30765-1.48395 3.30765-3.3078-1.4838-3.30765-3.30765-3.30765m0 8.81445c-3.0363 0-5.50665-2.47035-5.50665-5.5068 0-3.0363 2.47035-5.50665 5.50665-5.50665s5.50665 2.47035 5.50665 5.50665c0 3.03645-2.47035 5.5068-5.50665 5.5068"/></g></svg>