<svg height="150" viewBox="0 0 767 150" width="767" xmlns="http://www.w3.org/2000/svg"><g fill="#83cd44" fill-rule="evenodd"><path d="m88.7691016 18h-16.5382032c-.6797649 0-1.2308984-.447749-1.2308984-1s.5511335-1 1.2308984-1h16.5382032c.6797649 0 1.2308984.447749 1.2308984 1s-.5511335 1-1.2308984 1"/><path d="m54.7649239 18h-25.5298478c-.6819036 0-1.2350761-.447749-1.2350761-1s.5531725-1 1.2350761-1h25.5298478c.6820721 0 1.2350761.447749 1.2350761 1s-.553004 1-1.2350761 1"/><path d="m141.754377 2h-55.5085836c-.6878968 0-1.2457934-.44774898-1.2457934-1s.5578966-1 1.2457934-1h55.5085836c.687896 0 1.245623.44774898 1.245623 1s-.557727 1-1.245623 1"/><path d="m145.761447 34h-48.5228939c-.6839922 0-1.2385531-.447749-1.2385531-1s.5545609-1 1.2385531-1h48.5228939c.683992 0 1.238553.447749 1.238553 1s-.554561 1-1.238553 1"/><path d="m97.7410059 34h-34.4820118c-.6952808 0-1.2589941-.447749-1.2589941-1s.5637133-1 1.2589941-1h34.4820118c.6952808 0 1.2589941.447749 1.2589941 1s-.5637133 1-1.2589941 1"/><path d="m45.7687805 34h-44.53756097c-.67994224 0-1.23121953-.447749-1.23121953-1s.55127729-1 1.23121953-1h44.53756097c.6799422 0 1.2312195.447749 1.2312195 1s-.5512773 1-1.2312195 1"/><g transform="matrix(.89879405 -.43837115 .43837115 .89879405 702.705905 113.07433)"><path d="m31.7834002 33.5415302c.40348.21131.90222.05555 1.11364-.34815.56331-1.07558.86108-2.2885501.86108-3.5077901 0-4.18176-3.4020801-7.58395-7.5838401-7.58395h-1.93138c-.75559 0-1.37038-.61468-1.37038-1.37027s.61468-1.37038 1.37038-1.37038h1.93138c.55242 0 1.04852.3289 1.2639.83787.66737 1.57773 2.4937 2.31858 4.07165 1.65121 1.5777301-.66737 2.3184701-2.49381 1.6512101-4.07154-.89265-2.11057-2.6754201-3.6883-4.8455001-4.32443v-1.0824c0-1.71314-1.3937-3.10684006-3.10684-3.10684006s-3.10684 1.39370006-3.10684 3.10684006v1.0835c-3.19121.93907-5.4428 3.89697-5.4428 7.27617 0 4.18176 3.40219 7.58384 7.58395 7.58384h1.93138c.75559 0 1.37027.61468 1.37027 1.37038 0 .75559-.61468 1.37027-1.37027 1.37027h-1.93149c-.56969 0-1.07129-.34265-1.2782-.87307-.6226-1.59599-2.42737-2.38821-4.02325-1.76561-1.59599.62238-2.3881 2.42715-1.76572 4.0232501.86636 2.22156 2.67982 3.87387 4.92602 4.52584v1.07899c0 1.71314 1.3937 3.10684 3.10684 3.10684s3.10684-1.3937 3.10684-3.10684v-1.08361c.54472-.16049 1.06986-.38225 1.56794-.66253.3971-.22341.53779-.72644.31438-1.12354s-.72644-.5379-1.12354-.31438c-.54538.3069-1.13223.52404-1.74405.64537-.38632.07656-.66462.41547-.66462.80927v1.72953c0 .80333-.65351 1.45684-1.45684 1.45684s-1.45684-.65351-1.45684-1.45684v-1.72733c0-.39479-.27962-.73425-.66715-.80971-1.99342-.38863-3.62769-1.75956-4.37162-3.66718-.29183-.7484401.07964-1.5947801.82797-1.8866101.74844-.29172 1.59467.07964 1.8865.82797.45573 1.1685301 1.56079 1.9234601 2.81534 1.9234601h1.93138c1.6654 0 3.02027-1.3548701 3.02027-3.0202701s-1.35487-3.02038-3.02027-3.02038h-1.93138c-3.27195 0-5.93395-2.66189-5.93395-5.93384 0-2.82425 2.00948-5.2723 4.77818-5.82087.38632-.07656.66462-.41547.66462-.80927v-1.72953c0-.80333.65351-1.45684 1.45684-1.45684s1.45684.65351 1.45684 1.45684v1.72909c0 .39402.27863.73315.66528.80938 1.93039.38093 3.54178 1.69356 4.31057 3.51109.3129501.73986-.03443 1.59632-.77429 1.90916s-1.59621-.03443-1.90916-.7744c-.4741-1.12079-1.56673-1.84503-2.78355-1.84503h-1.93138c-1.6654 0-3.02038 1.35487-3.02038 3.02038 0 1.6654 1.35487 3.02027 3.02038 3.02027h1.93138c3.27195 0 5.9338401 2.662 5.9338401 5.93395 0 .96734-.22638 1.89002-.6727601 2.7423001-.21142.40359-.05555.90211.3480401 1.11353z"/><path d="m39.2744002 39.1593402c.3366.30723.85844.28347 1.16556-.05302 3.47413-3.80556 5.38758-8.7411501 5.38758-13.8978401 0-11.36927-9.24957-20.61895008-20.6189501-20.61895008-11.36938 0-20.61906008 9.24968008-20.61906008 20.61895008 0 11.3692701 9.24957008 20.6189501 20.61895008 20.6189501 4.44675 0 8.6816401-1.39337 12.2467401-4.02941.36641-.27093.44374-.78749.17281-1.1539-.27082-.36641-.78738-.44363-1.15379-.17292-3.27921 2.42462-7.1748601 3.70623-11.2658701 3.70623-10.45946 0-18.96895007-8.50938-18.96895007-18.9689501 0-10.45957 8.50960007-18.96895007 18.96906007-18.96895007 10.4595701 0 18.9689501 8.50938007 18.9689501 18.96895007 0 4.74397-1.76011 9.2845501-4.95616 12.7853001-.30712.3366-.28336.85833.05313 1.16556z"/><path d="m31.1115201 0h-5.90304c-1.72821 0-3.45521.176-5.13304.52316-.44616.09229-.73304.52888-.64075.97504001.09229.44627.52899.73304.97504.64075 1.56794-.3245 3.18252-.48895 4.79875-.48895 12.9979301 0 23.5584801 10.51490009 23.5584801 23.55848009 0 13.1499501-10.66879 23.5584801-23.5584801 23.5584801-13.02004 0-23.55848009-10.53668-23.55848009-23.5584801 0-9.94741 6.19509003-18.62201007 15.21509009-22.03861008.42614-.16137001.64064-.63767001.47927-1.06370001s-.63767-.64097-1.0637-.47927c-9.64249007 3.65244001-16.2806601 12.92698009-16.2806601 23.58158009 0 13.9319401 11.2745601 25.2084801 25.2084801 25.2084801h5.90304c13.9320501 0 25.2084802-11.27467 25.2084802-25.2084801 0-13.93205-11.2745601-25.2084801-25.2084802-25.2084801zm21.2212001 35.4669702h-4.08265c.40359-.90552.75273-1.83458 1.04588-2.78322h4.1691101c-.31713.9515-.6953101 1.88089-1.1323401 2.78322zm-2.80115 4.43322h-3.83108c.64284-.89265 1.22353-1.82215 1.73998-2.78311h4.0095c-.56859.96712-1.2089 1.89706-1.9184 2.78311zm5.1384301-14.6917101c0 .46629-.01353.93049-.04026 1.39216h-4.2502901c.02497-.46189.03751-.92609.03751-1.39216s-.01265-.93027-.03751-1.39216h4.2502901c.02673.46167.04026.92587.04026 1.39216zm-4.4335501-3.04216c-.11242-.94072-.27698-1.86956-.49203-2.78311h4.2037601c.231.91201.40766 1.84107.52833 2.78311zm-.49203 8.86754c.21505-.91355.37961-1.84239.49203-2.78311h4.2400601c-.12067.94204-.29744 1.8711-.52833 2.78311zm-.44847-13.30076c-.29315-.94864-.64229-1.8777-1.04588-2.78322h4.08265c.43714.90233.8152101 1.83172 1.1324501 2.78322zm-1.85548-4.43311c-.51634-.96096-1.09714-1.89046-1.73998-2.7831101h3.83108c.7095.8859401 1.3497 1.8158801 1.91829 2.7831101zm-5.19651-8.86633008h-2.74472c-1.41438-.97735-2.9172-1.80158001-4.48767-2.46433001 2.54287.42119 4.98025 1.25367001 7.23239 2.46433001zm-.61017 1.65000001h3.24357c1.14862.8305 2.2198 1.76275001 3.20342 2.78322001h-3.67565c-.84909-.99429-1.77947-1.92874001-2.77134-2.78322001zm-2.13455 39.89964017h2.74472c-2.25214 1.21066-4.68952 2.04314-7.23239 2.46433 1.57047-.66264 3.07329-1.48698 4.48767-2.46433zm5.37812-1.65h-3.24357c.99055-.85338 1.92104-1.78761 2.77134-2.78322h3.67565c-.98373 1.02058-2.0548 1.95272-3.20342 2.78322z"/></g></g></svg>