<svg height="462" viewBox="0 0 1427 462" width="1427" xmlns="http://www.w3.org/2000/svg"><g fill="none" fill-rule="evenodd"><g fill="#eeffdf" transform="translate(1325 359)"><path d="m50.7075406 4.3908373c-9.4944 0-18.7398 2.9151-26.6565 8.502-10.1271 7.1466-16.86479998 17.8089-18.97199998 30.0231-4.3506 25.2144 12.62339998 49.2672 37.83749998 53.6175 25.2138 4.3514997 49.2666-12.6234 53.6172-37.8375 2.1078-12.2145-.6675-24.5184-7.8141-34.6452-7.1469-10.1271-17.8095-16.8648-30.0237-18.9723-2.6658-.4599-5.3376-.6876-7.9884-.6876zm.1248 97.2215997c-2.8596 0-5.7522-.2427-8.6634-.7449-27.6042-4.7627997-46.18679998-31.0949997-41.42429998-58.6991997 4.7631-27.6039 31.09859998-46.1853 58.69919998-41.424 27.6039 4.7628 46.1871004 31.095 41.4243004 58.6992-4.2609004 24.6927-25.7853004 42.1688997-50.0358004 42.1688997z"/><path d="m48.5919563 97.6642849c10.8351.48 21.4629-2.8473 30.156-9.4791 9.3297-7.1169 15.5676-17.4096 17.5638-28.9809 1.4673-8.5032.5598-17.1249-2.6199-25.0722l-41.0328 18.6546zm2.055 4.4436001c-1.5456 0-3.096-.0705-4.6488-.2127-1.2084-.111-2.0988-1.1799-1.989-2.3883001l4.3854-48.3909c.0711-.7878.5598-1.4763 1.2795-1.8036l44.2443-20.115c1.1058-.5016 2.4078-.0144 2.9112 1.0899 4.2398997 9.3027 5.5595997 19.5606 3.8165997 29.6646-2.1857997 12.669-9.0155997 23.9376-19.2305997 31.7301-8.9139 6.8001-19.6926 10.4259001-30.7686 10.4259001z"/></g><g fill="#d8f9bb"><g><g transform="translate(658 420)"><path d="m132.69324 15.273615h-38.98005"/><path d="m78.3723 16.37313h-14.77275c-.6072 0-1.0995-.4923-1.0995-1.0995s.4923-1.0995 1.0995-1.0995h14.77275c.6072 0 1.0995.4923 1.0995 1.0995s-.4923 1.0995-1.0995 1.0995"/><path d="m48.25863 16.37313h-22.7274c-.60705 0-1.0995-.4923-1.0995-1.0995s.49245-1.0995 1.0995-1.0995h22.7274c.6072 0 1.0995.4923 1.0995 1.0995s-.4923 1.0995-1.0995 1.0995"/><path d="m125.66463 2.199h-48.9969c-.6072 0-1.09965-.4923-1.09965-1.0995 0-.6072.49245-1.0995 1.09965-1.0995h48.9969c.6072 0 1.0995.4923 1.0995 1.0995s-.4923 1.0995-1.0995 1.0995"/><path d="m38.59959 1.0995h22.72725"/><path d="m129.40203 30.547245h-43.0752c-.6072 0-1.0995-.4923-1.0995-1.0995s.4923-1.0995 1.0995-1.0995h43.0752c.6072 0 1.0995.4923 1.0995 1.0995s-.4923 1.0995-1.0995 1.0995"/><path d="m86.326845 30.547245h-30.1137c-.6072 0-1.0995-.4923-1.0995-1.0995s.4923-1.0995 1.0995-1.0995h30.1137c.6072 0 1.0995.4923 1.0995 1.0995s-.4923 1.0995-1.0995 1.0995"/><path d="m40.8723 30.547245h-39.7728c-.6072 0-1.0995-.4923-1.0995-1.0995s.4923-1.0995 1.0995-1.0995h39.7728c.6072 0 1.0995.4923 1.0995 1.0995s-.4923 1.0995-1.0995 1.0995"/></g><g transform="translate(1211)"><path d="m132.69324 15.273615h-38.98005"/><path d="m78.3723 16.37313h-14.77275c-.6072 0-1.0995-.4923-1.0995-1.0995s.4923-1.0995 1.0995-1.0995h14.77275c.6072 0 1.0995.4923 1.0995 1.0995s-.4923 1.0995-1.0995 1.0995"/><path d="m48.25863 16.37313h-22.7274c-.60705 0-1.0995-.4923-1.0995-1.0995s.49245-1.0995 1.0995-1.0995h22.7274c.6072 0 1.0995.4923 1.0995 1.0995s-.4923 1.0995-1.0995 1.0995"/><path d="m125.66463 2.199h-48.9969c-.6072 0-1.09965-.4923-1.09965-1.0995 0-.6072.49245-1.0995 1.09965-1.0995h48.9969c.6072 0 1.0995.4923 1.0995 1.0995s-.4923 1.0995-1.0995 1.0995"/><path d="m38.59959 1.0995h22.72725"/><path d="m129.40203 30.547245h-43.0752c-.6072 0-1.0995-.4923-1.0995-1.0995s.4923-1.0995 1.0995-1.0995h43.0752c.6072 0 1.0995.4923 1.0995 1.0995s-.4923 1.0995-1.0995 1.0995"/><path d="m86.326845 30.547245h-30.1137c-.6072 0-1.0995-.4923-1.0995-1.0995s.4923-1.0995 1.0995-1.0995h30.1137c.6072 0 1.0995.4923 1.0995 1.0995s-.4923 1.0995-1.0995 1.0995"/><path d="m40.8723 30.547245h-39.7728c-.6072 0-1.0995-.4923-1.0995-1.0995s.4923-1.0995 1.0995-1.0995h39.7728c.6072 0 1.0995.4923 1.0995 1.0995s-.4923 1.0995-1.0995 1.0995"/></g></g><g transform="translate(0 396)"><path d="m134.4711 2.199c-11.11065 0-20.14995 9.0393-20.14995 20.14995s9.0393 20.14995 20.14995 20.14995 20.14995-9.0393 20.14995-20.14995-9.0393-20.14995-20.14995-20.14995m0 42.4989c-12.32325 0-22.34895-10.0257-22.34895-22.34895s10.0257-22.34895 22.34895-22.34895 22.34895 10.0257 22.34895 22.34895-10.0257 22.34895-22.34895 22.34895" transform="matrix(-1 0 0 -1 268.9422 44.6979)"/><path d="m128.28375 23.448435h-127.18425c-.6072 0-1.0995-.4923-1.0995-1.0995s.4923-1.0995 1.0995-1.0995h127.18425c.6072 0 1.0995.4923 1.0995 1.0995s-.4923 1.0995-1.0995 1.0995" transform="matrix(-1 0 0 -1 129.38325 44.69787)"/><path d="m134.47095 17.2611c-2.80545 0-5.08785 2.2824-5.08785 5.08785s2.2824 5.08785 5.08785 5.08785 5.08785-2.2824 5.08785-5.08785-2.2824-5.08785-5.08785-5.08785m0 12.3747c-4.01805 0-7.28685-3.26895-7.28685-7.28685s3.2688-7.28685 7.28685-7.28685 7.287 3.26895 7.287 7.28685-3.26895 7.28685-7.287 7.28685" transform="matrix(-1 0 0 -1 268.94205 44.6979)"/></g></g></g></svg>