<svg height="111" viewBox="0 0 179 111" width="179" xmlns="http://www.w3.org/2000/svg"><path d="m243.966081 8.20644526h-3.506756c-.606349 0-1.097687-.4939668-1.097687-1.10322263s.491338-1.10322263 1.097687-1.10322263h3.506756c.606198 0 1.097686.4939668 1.097686 1.10322263s-.491488 1.10322263-1.097686 1.10322263m9.936233 0h-3.506906c-.606199 0-1.097686-.4939668-1.097686-1.10322263s.491487-1.10322263 1.097686-1.10322263h3.506906c.606048 0 1.097686.4939668 1.097686 1.10322263s-.491638 1.10322263-1.097686 1.10322263m-23.371286.20168054c-.55049 0-1.025206-.41525119-1.08915-.97800009-.069036-.60534262.3633-1.15213769.965754-1.2213713 1.193528-.13741368 2.411766-.20755035 3.621467-.20875441h.000898c.605899 0 1.097237.49306376 1.097687 1.10216908.000599.60925582-.49029 1.10367415-1.096638 1.10427618-1.127038.00120406-2.262163.06652448-3.373926.19430565-.04223.00481625-.08461.00737489-.126092.00737489m-9.51393 2.7165164c-.412119 0-.807017-.2343407-.994058-.6339391-.258024-.55131031-.022612-1.20857815.526081-1.46790319 1.092894-.516844 2.226671-.97498993 3.369732-1.36149413.574301-.19415514 1.197122.11619207 1.390453.69369074s-.115609 1.20315985-.69021 1.3974655c-1.063542.35971378-2.1184.78595208-3.135369 1.26682468-.151101.0714912-.310138.1053555-.466629.1053555m-8.154627 5.6273385c-.289172 0-.577895-.1139345-.793539-.3405993-.419008-.440386-.403433-1.138893.034593-1.560014.872009-.8378773 1.800924-1.6343649 2.761138-2.3670372.483102-.3682927 1.171514-.2737738 1.537959.2114636.366744.4853878.27255 1.1772725-.210402 1.5458662-.894173.6822522-1.759294 1.4241054-2.571252 2.2044887-.212649.2043897-.485797.305832-.758497.305832m-5.958655 7.9332694c-.172665 0-.347725-.0409381-.510806-.1273297-.536264-.2841588-.742024-.9513602-.45959-1.4904793.561572-1.0711645 1.191431-2.1221609 1.872056-3.1236402.341736-.5029973 1.024757-.632735 1.52553-.2888246.500773.34376.62926 1.0300758.287375 1.5332236-.633603.9322457-1.219884 1.9106973-1.742521 2.9078119-.196625.3749151-.577745.5892383-.972044.5892383m-3.127433 9.4287155c-.057804 0-.116208-.0045152-.17521-.0141477-.598561-.096626-1.006038-.6623851-.909897-1.263965.191234-1.1983436.453601-2.3971388.779612-3.5631232.163979-.5865291.769878-.928483 1.353763-.7635263.583586.1646556.923824.7739114.759695 1.360591-.303249 1.0848607-.547345 2.200425-.725551 3.3155377-.086557.5422799-.552737.9286335-1.082412.9286335m-.389806 9.963771c-.606048 0-1.097686-.4939668-1.097686-1.1032226v-3.5244426c0-.6092558.491638-1.1032226 1.097686-1.1032226.606199 0 1.097837.4939668 1.097837 1.1032226v3.5244426c0 .6092558-.491638 1.1032226-1.097837 1.1032226m0 9.9863472c-.606048 0-1.097686-.4939668-1.097686-1.1033731v-3.5245932c0-.6092558.491638-1.1032226 1.097686-1.1032226.606199 0 1.097837.4939668 1.097837 1.1032226v3.5245932c0 .6094063-.491638 1.1033731-1.097837 1.1033731m0 9.9861967c-.606048 0-1.097686-.4939668-1.097686-1.1032227v-3.5245931c0-.6092558.491638-1.1032226 1.097686-1.1032226.606199 0 1.097837.4939668 1.097837 1.1032226v3.5245931c0 .6092559-.491638 1.1032227-1.097837 1.1032227m0 9.9861966c-.606048 0-1.097686-.4939668-1.097686-1.1032226v-3.5244426c0-.6094063.491638-1.1032226 1.097686-1.1032226.606199 0 1.097837.4938163 1.097837 1.1032226v3.5244426c0 .6092558-.491638 1.1032226-1.097837 1.1032226m0 9.9861967c-.606048 0-1.097686-.4939668-1.097686-1.1032226v-3.5245931c0-.6092559.491638-1.1032227 1.097686-1.1032227.606199 0 1.097837.4939668 1.097837 1.1032227v3.5245931c0 .6092558-.491638 1.1032226-1.097837 1.1032226m-.976836 9.9008587c-.091049 0-.183746-.0115891-.275994-.0356703-.58688-.152615-.939248-.7546465-.787399-1.3444868.280936-1.09058.502271-2.2109605.657564-3.3299864.083861-.6033861.637497-1.0246576 1.238903-.9402227.600358.0841339 1.019216.6414646.935504 1.2450011-.166974 1.2024073-.404781 2.4063197-.706682 3.5783244-.128039.4971275-.573552.8270407-1.061896.8270407m-4.002586 9.0920295c-.20591 0-.414216-.058247-.59946-.180007-.507511-.333225-.649926-1.016982-.318224-1.527053.614884-.945491 1.181398-1.9361333 1.684117-2.9446865.271352-.544688.930862-.765182 1.473116-.4921607.541955.2728707.761342.9357073.489691 1.4805458-.539858 1.0833554-1.148752 2.1475964-1.80931 3.1635244-.210552.323893-.561722.499837-.91993.499837m-6.668183 7.340118c-.323915 0-.644685-.143434-.861377-.418412-.376328-.477712-.295911-1.171553.179254-1.549779.879946-.700163 1.729792-1.459174 2.526027-2.255812.42934-.4297 1.124342-.428647 1.552335.003311.427693.431656.426345 1.130314-.003445 1.560315-.854787.855336-1.76708 1.670336-2.712168 2.422123-.201717.160592-.44192.238254-.680626.238254m-8.642221 4.83356c-.450006 0-.871859-.280095-1.032843-.729963-.205161-.573435.090899-1.205418.661307-1.411613 1.055905-.381688 2.101628-.8296 3.107815-1.330941.543003-.270463 1.201764-.047561 1.47102.498482.269255.545892.047172 1.207675-.495981 1.478438-1.081214.538818-2.204807 1.019992-3.339632 1.430276-.122797.0444-.24844.065321-.371686.065321m-9.724483 1.803686c-.595566 0-1.084508-.478765-1.097087-1.080044-.012729-.609256.468276-1.113307 1.074325-1.1261 1.12584-.023931 2.259017-.112279 3.368384-.263088.600508-.082177 1.153694.341352 1.23486.94534.081316.603838-.339938 1.159513-.940746 1.241088-1.191281.161946-2.407871.256917-3.616225.282503-.007937.000301-.015873.000301-.023511.000301m-95.8537769.007074h-.4208047c-.6061985 0-1.0976864-.493967-1.0976864-1.103223 0-.609255.4914879-1.103222 1.0976864-1.103222h.4208047c.6061984 0 1.0976864.493967 1.0976864 1.103222 0 .609256-.491488 1.103223-1.0976864 1.103223m9.9359335 0h-3.506756c-.6061984 0-1.0976864-.493967-1.0976864-1.103223 0-.609255.491488-1.103222 1.0976864-1.103222h3.506756c.6061984 0 1.0976864.493967 1.0976864 1.103222 0 .609256-.491488 1.103223-1.0976864 1.103223m9.936233 0h-3.5069058c-.6063481 0-1.0976863-.493967-1.0976863-1.103223 0-.609255.4913382-1.103222 1.0976863-1.103222h3.5069058c.6061984 0 1.0976864.493967 1.0976864 1.103222 0 .609256-.491488 1.103223-1.0976864 1.103223m9.9360834 0h-3.506906c-.606049 0-1.097686-.493967-1.097686-1.103223 0-.609255.491637-1.103222 1.097686-1.103222h3.506906c.606198 0 1.097686.493967 1.097686 1.103222 0 .609256-.491488 1.103223-1.097686 1.103223m9.936083 0h-3.506756c-.606348 0-1.097686-.493967-1.097686-1.103223 0-.609255.491338-1.103222 1.097686-1.103222h3.506756c.606199 0 1.097686.493967 1.097686 1.103222 0 .609256-.491487 1.103223-1.097686 1.103223m9.936233 0h-3.506906c-.606198 0-1.097686-.493967-1.097686-1.103223 0-.609255.491488-1.103222 1.097686-1.103222h3.506906c.606049 0 1.097687.493967 1.097687 1.103222 0 .609256-.491638 1.103223-1.097687 1.103223m9.936083 0h-3.506905c-.606199 0-1.097687-.493967-1.097687-1.103223 0-.609255.491488-1.103222 1.097687-1.103222h3.506905c.606199 0 1.097687.493967 1.097687 1.103222 0 .609256-.491488 1.103223-1.097687 1.103223m9.936233 0h-3.506905c-.606199 0-1.097687-.493967-1.097687-1.103223 0-.609255.491488-1.103222 1.097687-1.103222h3.506905c.606199 0 1.097687.493967 1.097687 1.103222 0 .609256-.491488 1.103223-1.097687 1.103223m9.935934 0h-3.506906c-.606049 0-1.097686-.493967-1.097686-1.103223 0-.609255.491637-1.103222 1.097686-1.103222h3.506906c.606198 0 1.097686.493967 1.097686 1.103222 0 .609256-.491488 1.103223-1.097686 1.103223m9.936233 0h-3.506906c-.606348 0-1.097686-.493967-1.097686-1.103223 0-.609255.491338-1.103222 1.097686-1.103222h3.506906c.606348 0 1.097686.493967 1.097686 1.103222 0 .609256-.491338 1.103223-1.097686 1.103223" fill="#ed6d86" fillRule="evenodd" transform="translate(-76 -6)"/></svg>