<svg height="34" viewBox="0 0 108 34" width="108" xmlns="http://www.w3.org/2000/svg"><g fill="#83cd44" fill-rule="evenodd" transform="translate(-39)"><path d="m88.7691016 18h-16.5382032c-.6797649 0-1.2308984-.447749-1.2308984-1s.5511335-1 1.2308984-1h16.5382032c.6797649 0 1.2308984.447749 1.2308984 1s-.5511335 1-1.2308984 1"/><path d="m54.7649239 18h-25.5298478c-.6819036 0-1.2350761-.447749-1.2350761-1s.5531725-1 1.2350761-1h25.5298478c.6820721 0 1.2350761.447749 1.2350761 1s-.553004 1-1.2350761 1"/><path d="m141.754377 2h-55.5085836c-.6878968 0-1.2457934-.44774898-1.2457934-1s.5578966-1 1.2457934-1h55.5085836c.687896 0 1.245623.44774898 1.245623 1s-.557727 1-1.245623 1"/><path d="m145.761447 34h-48.5228939c-.6839922 0-1.2385531-.447749-1.2385531-1s.5545609-1 1.2385531-1h48.5228939c.683992 0 1.238553.447749 1.238553 1s-.554561 1-1.238553 1"/><path d="m97.7410059 34h-34.4820118c-.6952808 0-1.2589941-.447749-1.2589941-1s.5637133-1 1.2589941-1h34.4820118c.6952808 0 1.2589941.447749 1.2589941 1s-.5637133 1-1.2589941 1"/><path d="m45.7687805 34h-44.53756097c-.67994224 0-1.23121953-.447749-1.23121953-1s.55127729-1 1.23121953-1h44.53756097c.6799422 0 1.2312195.447749 1.2312195 1s-.5512773 1-1.2312195 1"/></g></svg>